<?xml version="1.0" encoding="utf-8"?>
<!-- Generator: Adobe Illustrator 27.8.1, SVG Export Plug-In . SVG Version: 6.00 Build 0)  -->
<svg version="1.1" id="Layer_1" xmlns="http://www.w3.org/2000/svg" xmlns:xlink="http://www.w3.org/1999/xlink" x="0px" y="0px"
	 viewBox="0 0 70 64" style="enable-background:new 0 0 70 64;" xml:space="preserve">
<style type="text/css">
	.st0{fill:#00ADB2;}
</style>
<path id="pie_chart" class="st0" d="M27.5,0c-4.2,0-8.4,1-12.2,2.8c-3.8,1.9-7.1,4.6-9.7,7.9C3.2,14,1.4,17.9,0.5,22
	c-0.8,4.1-0.7,8.4,0.4,12.5s3.1,7.8,5.8,11c2.8,3.2,6.2,5.7,10.1,7.3c3.9,1.6,8.1,2.3,12.3,2.1c4.2-0.3,8.3-1.5,12-3.6h0.2h0.1
	c5.3-3,9.4-7.7,11.8-13.3c2.3-5.6,2.8-11.9,1.2-17.7c-1.6-5.9-5.1-11.1-9.9-14.7S33.6-0.1,27.5,0z M30.3,5.7
	c4.8,0.6,9.3,2.8,12.8,6.3c3.4,3.4,5.7,7.9,6.3,12.8H30.3V5.7z M27.5,49.5c-5.6,0-10.9-2.2-15-6c-4-3.8-6.5-9-6.8-14.6
	c-0.3-5.6,1.4-11,5-15.3c3.5-4.3,8.6-7.1,14.1-7.8v21.8c0,0.3,0.1,0.7,0.2,1v0.2v0.2l11,18.9C33.3,48.9,30.5,49.5,27.5,49.5z
	 M40.8,45l-8.5-14.7h17c-0.4,2.9-1.3,5.7-2.8,8.2S43.2,43.2,40.8,45z"/>
</svg>
