<?xml version="1.0" encoding="utf-8"?>
<!-- Generator: Adobe Illustrator 27.7.0, SVG Export Plug-In . SVG Version: 6.00 Build 0)  -->
<svg version="1.1" id="Layer_1" xmlns="http://www.w3.org/2000/svg" xmlns:xlink="http://www.w3.org/1999/xlink" x="0px" y="0px"
	 viewBox="0 0 70 64" style="enable-background:new 0 0 70 64;" xml:space="preserve">
<style type="text/css">
	.st0{fill:#00ADB2;}
</style>
<path id="chart" class="st0" d="M15.4,39.2c1.1,0,2.2-0.4,3-1.2s1.2-1.9,1.2-3c0-0.1,0-0.3,0-0.4l7.8-7.8H28h0.6l4.5,4.5
	c0,0,0,0.1,0,0.2c0,1.1,0.4,2.2,1.2,3s1.9,1.2,3,1.2s2.2-0.4,3-1.2s1.2-1.9,1.2-3v-0.2L51.8,21c0.8,0,1.6-0.2,2.3-0.7
	s1.2-1.1,1.5-1.9s0.4-1.6,0.2-2.4c-0.2-0.8-0.6-1.6-1.1-2.2c-0.6-0.6-1.3-1-2.2-1.1s-1.7-0.1-2.4,0.2c-0.8,0.3-1.4,0.9-1.9,1.5
	c-0.5,0.7-0.7,1.5-0.7,2.3c0,0.1,0,0.3,0,0.4l-10,10.2H37l-4.8-4.9c0-1.1-0.4-2.2-1.2-3c-0.8-0.8-1.9-1.2-3-1.2s-2.2,0.4-3,1.2
	c-0.8,0.8-1.2,1.9-1.2,3l-8.4,8.4c-1.1,0-2.2,0.4-3,1.2c-0.8,0.8-1.2,1.9-1.2,3s0.4,2.2,1.2,3S14.3,39.2,15.4,39.2z M53.2,50.4H5.6
	V2.8c0-0.7-0.3-1.5-0.8-2S3.5,0,2.8,0s-1.5,0.3-2,0.8S0,2.1,0,2.8v50.4c0,0.7,0.3,1.5,0.8,2S2,56,2.8,56h50.4c0.7,0,1.5-0.3,2-0.8
	s0.8-1.2,0.8-2s-0.3-1.5-0.8-2S53.9,50.4,53.2,50.4z"/>
</svg>
