<?xml version="1.0" encoding="utf-8"?>
<!-- Generator: Adobe Illustrator 27.8.1, SVG Export Plug-In . SVG Version: 6.00 Build 0)  -->
<svg version="1.1" id="Layer_1" xmlns="http://www.w3.org/2000/svg" xmlns:xlink="http://www.w3.org/1999/xlink" x="0px" y="0px"
	 viewBox="0 0 70 64" style="enable-background:new 0 0 70 64;" xml:space="preserve">
<style type="text/css">
	.st0{fill:#00ADB2;}
</style>
<path id="dashboard" class="st0" d="M27.8,11.4c-0.7,0-1.4,0.3-2,0.8c-0.5,0.5-0.8,1.3-0.8,2v28.4c0,0.8,0.3,1.5,0.8,2
	c0.5,0.5,1.2,0.8,2,0.8c0.7,0,1.4-0.3,2-0.8c0.5-0.5,0.8-1.3,0.8-2V14.2c0-0.8-0.3-1.5-0.8-2C29.3,11.7,28.6,11.4,27.8,11.4z
	 M13.9,28.4c-0.7,0-1.4,0.3-2,0.8c-0.5,0.5-0.8,1.3-0.8,2v11.4c0,0.8,0.3,1.5,0.8,2c0.5,0.5,1.2,0.8,2,0.8c0.7,0,1.4-0.3,2-0.8
	c0.5-0.5,0.8-1.3,0.8-2V31.2c0-0.8-0.3-1.5-0.8-2C15.4,28.7,14.6,28.4,13.9,28.4z M41.7,22.7c-0.7,0-1.4,0.3-2,0.8
	c-0.5,0.5-0.8,1.3-0.8,2v17c0,0.8,0.3,1.5,0.8,2c0.5,0.5,1.2,0.8,2,0.8c0.7,0,1.4-0.3,2-0.8c0.5-0.5,0.8-1.3,0.8-2v-17
	c0-0.8-0.3-1.5-0.8-2C43.2,23,42.5,22.7,41.7,22.7z M47.3,0h-39C6.1,0,4,0.9,2.4,2.5C0.9,4.1,0,6.3,0,8.5v39.7c0,2.3,0.9,4.4,2.4,6
	c1.6,1.6,3.7,2.5,5.9,2.5h39c2.2,0,4.3-0.9,5.9-2.5c1.6-1.6,2.4-3.8,2.4-6V8.5c0-2.3-0.9-4.4-2.4-6C51.6,0.9,49.5,0,47.3,0z
	 M50.1,48.2c0,0.8-0.3,1.5-0.8,2c-0.5,0.5-1.2,0.8-2,0.8h-39c-0.7,0-1.4-0.3-2-0.8c-0.5-0.5-0.8-1.3-0.8-2V8.5c0-0.8,0.3-1.5,0.8-2
	c0.5-0.5,1.2-0.8,2-0.8h39c0.7,0,1.4,0.3,2,0.8c0.5,0.5,0.8,1.3,0.8,2V48.2z"/>
</svg>
